<?xml version="1.0" encoding="utf-8"?>
<!-- Generator: Adobe Illustrator 25.0.0, SVG Export Plug-In . SVG Version: 6.00 Build 0)  -->
<svg version="1.0" id="Layer_1" xmlns="http://www.w3.org/2000/svg" xmlns:xlink="http://www.w3.org/1999/xlink" x="0px" y="0px"
	 viewBox="0 0 512 512" style="enable-background:new 0 0 512 512;" xml:space="preserve">
<style type="text/css">
	.st0{fill-rule:evenodd;clip-rule:evenodd;fill:#F5DEB3;}
</style>
<path class="st0" d="M414.7,97.1C372.9,55.3,316.1,31.8,256.9,32C134,32,33.9,131.6,33.9,254c-0.1,39,10.2,77.3,29.8,111L32,480
	l118.2-30.9c32.7,17.7,69.4,27,106.6,27h0.1c122.9,0,223-99.6,223.1-222C480.2,195.2,456.6,138.6,414.7,97.1z M256.9,438.7
	L256.9,438.7c-33.3,0-65.8-8.9-94.4-25.7l-6.8-4l-70.2,18.3l18.7-68.1l-4.4-7c-18.6-29.4-28.4-63.4-28.4-98.2
	c0-101.7,83.2-184.5,185.5-184.5c102.2-0.2,185.1,82.5,185.3,184.6C442.3,355.9,359.1,438.7,256.9,438.7L256.9,438.7z M358.6,300.5
	c-5.6-2.8-33-16.2-38.1-18s-8.8-2.8-12.5,2.8s-14.4,18-17.6,21.8s-6.5,4.2-12.1,1.4s-23.5-8.6-44.8-27.5
	c-16.6-14.7-27.8-32.9-31-38.4s-0.4-8.6,2.4-11.3c2.5-2.5,5.6-6.5,8.4-9.7s3.7-5.6,5.6-9.3s0.9-6.9-0.5-9.7s-12.5-30.1-17.2-41.2
	c-4.5-10.8-9.1-9.4-12.5-9.5c-3.2-0.2-7-0.2-10.7-0.2c-5.7,0.1-11.1,2.7-14.9,6.9c-5.1,5.6-19.5,19-19.5,46.3s20,53.7,22.8,57.4
	s39.3,59.7,95.2,83.8c10.4,4.4,21,8.3,31.8,11.7c13.4,4.2,25.5,3.6,35.1,2.2c10.7-1.6,33-13.4,37.6-26.4s4.6-24.1,3.2-26.4
	S364.2,303.2,358.6,300.5L358.6,300.5z"/>
</svg>
